<svg width="49" height="49" viewBox="0 0 49 49" fill="none" xmlns="http://www.w3.org/2000/svg">
<g clip-path="url(#clip0_291_21)">
<circle cx="24.5" cy="24.5" r="24.5" fill="white"/>
<path d="M16 22.5C15.1716 22.5 14.5 23.1716 14.5 24C14.5 24.8284 15.1716 25.5 16 25.5V22.5ZM35.0607 25.0607C35.6464 24.4749 35.6464 23.5251 35.0607 22.9393L25.5147 13.3934C24.9289 12.8076 23.9792 12.8076 23.3934 13.3934C22.8076 13.9792 22.8076 14.9289 23.3934 15.5147L31.8787 24L23.3934 32.4853C22.8076 33.0711 22.8076 34.0208 23.3934 34.6066C23.9792 35.1924 24.9289 35.1924 25.5147 34.6066L35.0607 25.0607ZM16 25.5H34V22.5H16V25.5Z" fill="#003BAA"/>
</g>
<defs>
<clipPath id="clip0_291_21">
<rect width="49" height="49" fill="white"/>
</clipPath>
</defs>
</svg>
