<svg width="117" height="154" viewBox="0 0 117 154" fill="none" xmlns="http://www.w3.org/2000/svg">
<path d="M0 43.6235L7.10002 26L39.089 43.5078L36.4364 50.4514L0 43.6235Z" fill="#002466"/>
<path d="M61 103.625L64.7572 85.0002L99.4086 96.3626L98.0706 103.674L61 103.625Z" fill="#002466"/>
<path d="M15.353 153.541L13.9999 134.589L50.4271 136.284L51.0904 143.688L15.353 153.541Z" fill="#002466"/>
<path d="M79 13.6372L94.7433 3.0001L111.467 35.4062L105.384 39.6781L79 13.6372Z" fill="#002466"/>
<path d="M1 40.6235L8.10002 23L40.089 40.5078L37.4364 47.4514L1 40.6235Z" fill="#32F188"/>
<path d="M62 100.625L65.7572 82.0002L100.409 93.3626L99.0706 100.674L62 100.625Z" fill="#32F188"/>
<path d="M16.353 150.541L14.9999 131.589L51.4271 133.284L52.0904 140.688L16.353 150.541Z" fill="#32F188"/>
<path d="M80 10.6372L95.7433 0.000101626L112.467 32.4062L106.384 36.6781L80 10.6372Z" fill="#32F188"/>
</svg>
