<svg width="61" height="54" viewBox="0 0 61 54" fill="none" xmlns="http://www.w3.org/2000/svg">
<path d="M17.7506 9.18018C17.78 9.18018 17.8108 9.18163 17.8401 9.18163H17.6963C17.7139 9.18163 17.733 9.18018 17.7506 9.18018Z" fill="#32F188"/>
<path d="M47.7067 15.1396C47.5306 15.0988 47.3529 15.0638 47.1768 15.0317C47.3529 15.0623 47.5291 15.0988 47.7067 15.1396Z" fill="#32F188"/>
<path d="M17.7506 9.18018C17.733 9.18018 17.7139 9.18163 17.6963 9.18163H17.8402C17.8108 9.18163 17.78 9.18018 17.7506 9.18018ZM47.1769 15.0315C47.353 15.0636 47.5307 15.0986 47.7068 15.1394C47.5292 15.0986 47.353 15.0621 47.1769 15.0315Z" fill="white"/>
<path d="M26.2624 53.9302C25.5959 53.9302 24.9851 53.8836 24.4449 53.7889C15.61 52.2324 -4.62318 29.783 1.71748 18.2217C2.22984 17.2875 2.88607 16.3752 3.66415 15.5095C3.75958 15.4032 3.85647 15.2982 3.95483 15.1933C4.08403 15.0563 4.21615 14.9208 4.35122 14.7867C4.48628 14.6526 4.62575 14.52 4.76668 14.3888C4.90762 14.2577 5.05149 14.1294 5.19683 14.0012C5.70919 13.5538 6.25532 13.1253 6.83081 12.7245C6.99524 12.6094 7.16113 12.4972 7.32996 12.3864C7.58247 12.2203 7.84085 12.06 8.10364 11.904H8.10511C8.45451 11.6956 8.81419 11.4974 9.18121 11.3094C9.27517 11.2613 9.3706 11.2132 9.46602 11.1666C9.73321 11.0354 10.0033 10.9086 10.2779 10.7891C10.3983 10.7352 10.5201 10.6842 10.6434 10.6332C10.799 10.5691 10.9547 10.5064 11.1132 10.4452C11.2321 10.3985 11.3525 10.3548 11.4729 10.3111C11.6696 10.2397 11.8693 10.1712 12.0689 10.1056C12.7677 9.87681 13.4856 9.68589 14.2167 9.5387C14.321 9.51684 14.4252 9.49643 14.5309 9.47749C14.7408 9.43814 14.9523 9.40316 15.1637 9.37256C15.2694 9.35652 15.3765 9.34195 15.4822 9.32738C15.5762 9.31572 15.6687 9.30406 15.7626 9.29386C16.0342 9.2618 16.3073 9.23702 16.5818 9.21953C16.6171 9.21808 16.6538 9.21662 16.689 9.2137C16.8387 9.20496 16.987 9.19767 17.1368 9.19184C17.1764 9.19038 17.216 9.18893 17.2557 9.18893C17.401 9.18456 17.5478 9.18164 17.6946 9.18164H17.8385C17.9501 9.18164 18.0602 9.1831 18.1718 9.18601L18.3083 9.19038C18.4243 9.19476 18.5417 9.19913 18.6577 9.20496C18.6782 9.20496 18.6988 9.20642 18.7194 9.20787C18.7399 9.20933 18.7605 9.21079 18.781 9.21225C18.8999 9.21953 19.0188 9.22682 19.1378 9.23702C19.2948 9.24868 19.4534 9.26471 19.6105 9.2822C19.9848 9.32301 20.3592 9.37693 20.7336 9.44542C26.0348 10.4073 28.9416 15.5314 30.4743 18.5598C30.9514 19.4998 31.2964 20.2373 31.5387 20.587C31.5871 20.5579 31.6561 20.5083 31.7442 20.4442C31.7882 20.4121 31.8381 20.3757 31.891 20.3349C31.9453 20.2956 32.004 20.2518 32.0672 20.2037C32.1303 20.1571 32.1978 20.1061 32.2698 20.0522H32.2712C32.3285 20.0085 32.3872 19.9647 32.4503 19.9181C32.8247 19.6412 33.2945 19.3002 33.845 18.9271C33.9625 18.8484 34.0828 18.7668 34.2076 18.6852C34.3324 18.6036 34.4601 18.5205 34.5908 18.436C34.6818 18.3777 34.7743 18.3194 34.8697 18.2611C35.1149 18.108 35.3704 17.9521 35.6361 17.7962C35.7844 17.7102 35.9341 17.6242 36.0868 17.5382C38.5385 16.1625 41.7272 14.8464 45.0656 14.8464C45.1522 14.8464 45.2403 14.8479 45.3284 14.8494C45.5031 14.8523 45.6778 14.8596 45.8525 14.8712C46.2914 14.8989 46.7333 14.9514 47.1752 15.0315C47.3514 15.0636 47.529 15.0986 47.7052 15.1394C47.7933 15.1598 47.8814 15.1802 47.9695 15.2035C48.1471 15.2487 48.3233 15.2982 48.4994 15.3522C48.7637 15.4338 49.0279 15.527 49.2922 15.6305C55.9793 18.2625 59.8624 24.86 60.25 30.2625C61.1308 42.5759 36.6902 53.9302 26.2609 53.9302H26.2624Z" fill="#32F188"/>
<path d="M41.8427 0C41.505 2.6393 40.8444 5.8222 39.551 9.27909C38.6658 11.6488 37.6234 13.7722 36.5238 15.6536C34.6476 16.5966 33.0944 17.6459 32.0403 18.4081C31.8157 17.9577 31.5573 17.4447 31.2593 16.8909C31.7995 15.6682 32.3119 14.3405 32.767 12.9079C34.3936 7.78965 34.6623 3.30969 34.608 0.275443C37.0186 0.183629 39.4306 0.0918144 41.8427 0Z" fill="#003BAA"/>
</svg>
